<svg xmlns="http://www.w3.org/2000/svg" xmlns:xlink="http://www.w3.org/1999/xlink" width="500" zoomAndPan="magnify" viewBox="0 0 375 374.999991" height="500" preserveAspectRatio="xMidYMid meet" version="1.0"><defs><g/><clipPath id="a97d4d86f3"><path d="M 133 29.558594 L 236 29.558594 L 236 117 L 133 117 Z M 133 29.558594 " clip-rule="nonzero"/></clipPath><clipPath id="1d246d95d2"><path d="M 231.859375 29.652344 C 239.113281 53.6875 160.277344 87.296875 133.550781 99.480469 L 133.710938 102.414062 C 133.988281 107.519531 135.839844 112.054688 138.875 116.203125 C 219.886719 81.464844 245.640625 58.390625 231.859375 29.652344 Z M 231.859375 29.652344 " clip-rule="nonzero"/></clipPath><linearGradient x1="72.139987" gradientTransform="matrix(0.223541, 0, 0, 0.223541, 117.425318, 29.650759)" y1="193.59" x2="573.569989" gradientUnits="userSpaceOnUse" y2="193.59" id="51ac154eaf"><stop stop-opacity="1" stop-color="rgb(79.998779%, 79.998779%, 79.998779%)" offset="0"/><stop stop-opacity="1" stop-color="rgb(79.826355%, 79.826355%, 79.826355%)" offset="0.0078125"/><stop stop-opacity="1" stop-color="rgb(79.483032%, 79.483032%, 79.483032%)" offset="0.015625"/><stop stop-opacity="1" stop-color="rgb(79.138184%, 79.138184%, 79.138184%)" offset="0.0234375"/><stop stop-opacity="1" stop-color="rgb(78.794861%, 78.794861%, 78.794861%)" offset="0.03125"/><stop stop-opacity="1" stop-color="rgb(78.450012%, 78.450012%, 78.450012%)" offset="0.0390625"/><stop stop-opacity="1" stop-color="rgb(78.106689%, 78.106689%, 78.106689%)" offset="0.046875"/><stop stop-opacity="1" stop-color="rgb(77.761841%, 77.761841%, 77.761841%)" offset="0.0546875"/><stop stop-opacity="1" stop-color="rgb(77.418518%, 77.418518%, 77.418518%)" offset="0.0625"/><stop stop-opacity="1" stop-color="rgb(77.075195%, 77.075195%, 77.075195%)" offset="0.0703125"/><stop stop-opacity="1" stop-color="rgb(76.730347%, 76.730347%, 76.730347%)" offset="0.078125"/><stop stop-opacity="1" stop-color="rgb(76.387024%, 76.387024%, 76.387024%)" offset="0.0859375"/><stop stop-opacity="1" stop-color="rgb(76.042175%, 76.042175%, 76.042175%)" offset="0.09375"/><stop stop-opacity="1" stop-color="rgb(75.698853%, 75.698853%, 75.698853%)" offset="0.101562"/><stop stop-opacity="1" stop-color="rgb(75.354004%, 75.354004%, 75.354004%)" offset="0.109375"/><stop stop-opacity="1" stop-color="rgb(75.010681%, 75.010681%, 75.010681%)" offset="0.117188"/><stop stop-opacity="1" stop-color="rgb(74.667358%, 74.667358%, 74.667358%)" offset="0.125"/><stop stop-opacity="1" stop-color="rgb(74.32251%, 74.32251%, 74.32251%)" offset="0.132812"/><stop stop-opacity="1" stop-color="rgb(73.979187%, 73.979187%, 73.979187%)" offset="0.140625"/><stop stop-opacity="1" stop-color="rgb(73.634338%, 73.634338%, 73.634338%)" offset="0.148437"/><stop stop-opacity="1" stop-color="rgb(73.291016%, 73.291016%, 73.291016%)" offset="0.15625"/><stop stop-opacity="1" stop-color="rgb(72.946167%, 72.946167%, 72.946167%)" offset="0.164062"/><stop stop-opacity="1" stop-color="rgb(72.602844%, 72.602844%, 72.602844%)" offset="0.171875"/><stop stop-opacity="1" stop-color="rgb(72.259521%, 72.259521%, 72.259521%)" offset="0.179688"/><stop stop-opacity="1" stop-color="rgb(71.914673%, 71.914673%, 71.914673%)" offset="0.1875"/><stop stop-opacity="1" stop-color="rgb(71.57135%, 71.57135%, 71.57135%)" offset="0.195312"/><stop stop-opacity="1" stop-color="rgb(71.226501%, 71.226501%, 71.226501%)" offset="0.203125"/><stop stop-opacity="1" stop-color="rgb(70.883179%, 70.883179%, 70.883179%)" offset="0.210938"/><stop stop-opacity="1" stop-color="rgb(70.53833%, 70.53833%, 70.53833%)" offset="0.21875"/><stop stop-opacity="1" stop-color="rgb(70.195007%, 70.195007%, 70.195007%)" offset="0.226562"/><stop stop-opacity="1" stop-color="rgb(69.851685%, 69.851685%, 69.851685%)" offset="0.234375"/><stop stop-opacity="1" stop-color="rgb(69.506836%, 69.506836%, 69.506836%)" offset="0.242187"/><stop stop-opacity="1" stop-color="rgb(69.163513%, 69.163513%, 69.163513%)" offset="0.25"/><stop stop-opacity="1" stop-color="rgb(68.818665%, 68.818665%, 68.818665%)" offset="0.257812"/><stop stop-opacity="1" stop-color="rgb(68.475342%, 68.475342%, 68.475342%)" offset="0.265625"/><stop stop-opacity="1" stop-color="rgb(68.130493%, 68.130493%, 68.130493%)" offset="0.273437"/><stop stop-opacity="1" stop-color="rgb(67.78717%, 67.78717%, 67.78717%)" offset="0.28125"/><stop stop-opacity="1" stop-color="rgb(67.443848%, 67.443848%, 67.443848%)" offset="0.289062"/><stop stop-opacity="1" stop-color="rgb(67.098999%, 67.098999%, 67.098999%)" offset="0.296875"/><stop stop-opacity="1" stop-color="rgb(66.755676%, 66.755676%, 66.755676%)" offset="0.304687"/><stop stop-opacity="1" stop-color="rgb(66.410828%, 66.410828%, 66.410828%)" offset="0.3125"/><stop stop-opacity="1" stop-color="rgb(66.067505%, 66.067505%, 66.067505%)" offset="0.320312"/><stop stop-opacity="1" stop-color="rgb(65.722656%, 65.722656%, 65.722656%)" offset="0.328125"/><stop stop-opacity="1" stop-color="rgb(65.379333%, 65.379333%, 65.379333%)" offset="0.335938"/><stop stop-opacity="1" stop-color="rgb(65.036011%, 65.036011%, 65.036011%)" offset="0.34375"/><stop stop-opacity="1" stop-color="rgb(64.691162%, 64.691162%, 64.691162%)" offset="0.351562"/><stop stop-opacity="1" stop-color="rgb(64.347839%, 64.347839%, 64.347839%)" offset="0.359375"/><stop stop-opacity="1" stop-color="rgb(64.002991%, 64.002991%, 64.002991%)" offset="0.367187"/><stop stop-opacity="1" stop-color="rgb(63.659668%, 63.659668%, 63.659668%)" offset="0.375"/><stop stop-opacity="1" stop-color="rgb(63.314819%, 63.314819%, 63.314819%)" offset="0.382812"/><stop stop-opacity="1" stop-color="rgb(62.971497%, 62.971497%, 62.971497%)" offset="0.390625"/><stop stop-opacity="1" stop-color="rgb(62.628174%, 62.628174%, 62.628174%)" offset="0.398437"/><stop stop-opacity="1" stop-color="rgb(62.283325%, 62.283325%, 62.283325%)" offset="0.40625"/><stop stop-opacity="1" stop-color="rgb(61.940002%, 61.940002%, 61.940002%)" offset="0.414062"/><stop stop-opacity="1" stop-color="rgb(61.595154%, 61.595154%, 61.595154%)" offset="0.421875"/><stop stop-opacity="1" stop-color="rgb(61.251831%, 61.251831%, 61.251831%)" offset="0.429687"/><stop stop-opacity="1" stop-color="rgb(60.906982%, 60.906982%, 60.906982%)" offset="0.4375"/><stop stop-opacity="1" stop-color="rgb(60.56366%, 60.56366%, 60.56366%)" offset="0.445312"/><stop stop-opacity="1" stop-color="rgb(60.220337%, 60.220337%, 60.220337%)" offset="0.453125"/><stop stop-opacity="1" stop-color="rgb(59.875488%, 59.875488%, 59.875488%)" offset="0.460938"/><stop stop-opacity="1" stop-color="rgb(59.532166%, 59.532166%, 59.532166%)" offset="0.46875"/><stop stop-opacity="1" stop-color="rgb(59.187317%, 59.187317%, 59.187317%)" offset="0.476562"/><stop stop-opacity="1" stop-color="rgb(58.843994%, 58.843994%, 58.843994%)" offset="0.484375"/><stop stop-opacity="1" stop-color="rgb(58.499146%, 58.499146%, 58.499146%)" offset="0.492188"/><stop stop-opacity="1" stop-color="rgb(58.155823%, 58.155823%, 58.155823%)" offset="0.5"/><stop stop-opacity="1" stop-color="rgb(57.8125%, 57.8125%, 57.8125%)" offset="0.507812"/><stop stop-opacity="1" stop-color="rgb(57.467651%, 57.467651%, 57.467651%)" offset="0.515625"/><stop stop-opacity="1" stop-color="rgb(57.124329%, 57.124329%, 57.124329%)" offset="0.523438"/><stop stop-opacity="1" stop-color="rgb(56.77948%, 56.77948%, 56.77948%)" offset="0.53125"/><stop stop-opacity="1" stop-color="rgb(56.436157%, 56.436157%, 56.436157%)" offset="0.539062"/><stop stop-opacity="1" stop-color="rgb(56.091309%, 56.091309%, 56.091309%)" offset="0.546875"/><stop stop-opacity="1" stop-color="rgb(55.747986%, 55.747986%, 55.747986%)" offset="0.554688"/><stop stop-opacity="1" stop-color="rgb(55.404663%, 55.404663%, 55.404663%)" offset="0.5625"/><stop stop-opacity="1" stop-color="rgb(55.059814%, 55.059814%, 55.059814%)" offset="0.570312"/><stop stop-opacity="1" stop-color="rgb(54.716492%, 54.716492%, 54.716492%)" offset="0.578125"/><stop stop-opacity="1" stop-color="rgb(54.371643%, 54.371643%, 54.371643%)" offset="0.585938"/><stop stop-opacity="1" stop-color="rgb(54.02832%, 54.02832%, 54.02832%)" offset="0.59375"/><stop stop-opacity="1" stop-color="rgb(53.683472%, 53.683472%, 53.683472%)" offset="0.601562"/><stop stop-opacity="1" stop-color="rgb(53.340149%, 53.340149%, 53.340149%)" offset="0.609375"/><stop stop-opacity="1" stop-color="rgb(52.996826%, 52.996826%, 52.996826%)" offset="0.617188"/><stop stop-opacity="1" stop-color="rgb(52.651978%, 52.651978%, 52.651978%)" offset="0.625"/><stop stop-opacity="1" stop-color="rgb(52.308655%, 52.308655%, 52.308655%)" offset="0.632812"/><stop stop-opacity="1" stop-color="rgb(51.963806%, 51.963806%, 51.963806%)" offset="0.640625"/><stop stop-opacity="1" stop-color="rgb(51.620483%, 51.620483%, 51.620483%)" offset="0.648438"/><stop stop-opacity="1" stop-color="rgb(51.275635%, 51.275635%, 51.275635%)" offset="0.65625"/><stop stop-opacity="1" stop-color="rgb(50.932312%, 50.932312%, 50.932312%)" offset="0.664062"/><stop stop-opacity="1" stop-color="rgb(50.588989%, 50.588989%, 50.588989%)" offset="0.671875"/><stop stop-opacity="1" stop-color="rgb(50.244141%, 50.244141%, 50.244141%)" offset="0.679688"/><stop stop-opacity="1" stop-color="rgb(49.900818%, 49.900818%, 49.900818%)" offset="0.6875"/><stop stop-opacity="1" stop-color="rgb(49.555969%, 49.555969%, 49.555969%)" offset="0.695312"/><stop stop-opacity="1" stop-color="rgb(49.212646%, 49.212646%, 49.212646%)" offset="0.703125"/><stop stop-opacity="1" stop-color="rgb(48.867798%, 48.867798%, 48.867798%)" offset="0.710938"/><stop stop-opacity="1" stop-color="rgb(48.524475%, 48.524475%, 48.524475%)" offset="0.71875"/><stop stop-opacity="1" stop-color="rgb(48.181152%, 48.181152%, 48.181152%)" offset="0.726562"/><stop stop-opacity="1" stop-color="rgb(47.836304%, 47.836304%, 47.836304%)" offset="0.734375"/><stop stop-opacity="1" stop-color="rgb(47.492981%, 47.492981%, 47.492981%)" offset="0.742188"/><stop stop-opacity="1" stop-color="rgb(47.148132%, 47.148132%, 47.148132%)" offset="0.75"/><stop stop-opacity="1" stop-color="rgb(46.80481%, 46.80481%, 46.80481%)" offset="0.757812"/><stop stop-opacity="1" stop-color="rgb(46.459961%, 46.459961%, 46.459961%)" offset="0.765625"/><stop stop-opacity="1" stop-color="rgb(46.116638%, 46.116638%, 46.116638%)" offset="0.773438"/><stop stop-opacity="1" stop-color="rgb(45.773315%, 45.773315%, 45.773315%)" offset="0.78125"/><stop stop-opacity="1" stop-color="rgb(45.428467%, 45.428467%, 45.428467%)" offset="0.789062"/><stop stop-opacity="1" stop-color="rgb(45.085144%, 45.085144%, 45.085144%)" offset="0.796875"/><stop stop-opacity="1" stop-color="rgb(44.740295%, 44.740295%, 44.740295%)" offset="0.804688"/><stop stop-opacity="1" stop-color="rgb(44.396973%, 44.396973%, 44.396973%)" offset="0.8125"/><stop stop-opacity="1" stop-color="rgb(44.052124%, 44.052124%, 44.052124%)" offset="0.820312"/><stop stop-opacity="1" stop-color="rgb(43.708801%, 43.708801%, 43.708801%)" offset="0.828125"/><stop stop-opacity="1" stop-color="rgb(43.365479%, 43.365479%, 43.365479%)" offset="0.835938"/><stop stop-opacity="1" stop-color="rgb(43.02063%, 43.02063%, 43.02063%)" offset="0.84375"/><stop stop-opacity="1" stop-color="rgb(42.677307%, 42.677307%, 42.677307%)" offset="0.851562"/><stop stop-opacity="1" stop-color="rgb(42.332458%, 42.332458%, 42.332458%)" offset="0.859375"/><stop stop-opacity="1" stop-color="rgb(41.989136%, 41.989136%, 41.989136%)" offset="0.867188"/><stop stop-opacity="1" stop-color="rgb(41.644287%, 41.644287%, 41.644287%)" offset="0.875"/><stop stop-opacity="1" stop-color="rgb(41.300964%, 41.300964%, 41.300964%)" offset="0.882812"/><stop stop-opacity="1" stop-color="rgb(40.957642%, 40.957642%, 40.957642%)" offset="0.890625"/><stop stop-opacity="1" stop-color="rgb(40.612793%, 40.612793%, 40.612793%)" offset="0.898438"/><stop stop-opacity="1" stop-color="rgb(40.26947%, 40.26947%, 40.26947%)" offset="0.90625"/><stop stop-opacity="1" stop-color="rgb(40.048218%, 40.048218%, 40.048218%)" offset="0.9375"/><stop stop-opacity="1" stop-color="rgb(39.99939%, 39.99939%, 39.99939%)" offset="1"/></linearGradient><clipPath id="94e23b1cca"><path d="M 141 47 L 243 47 L 243 132 L 141 132 Z M 141 47 " clip-rule="nonzero"/></clipPath><clipPath id="d2ea125033"><path d="M 238.550781 50.628906 C 233.203125 78.542969 177.988281 104.445312 141.351562 119.441406 L 141.335938 119.445312 C 145.851562 123.628906 151.617188 127.425781 158.179688 131.058594 C 232.4375 98.425781 252.113281 74.746094 239.15625 47.113281 C 239.019531 48.308594 238.816406 49.480469 238.550781 50.628906 Z M 238.550781 50.628906 " clip-rule="evenodd"/></clipPath><linearGradient x1="106.970019" gradientTransform="matrix(0.223541, 0, 0, 0.223541, 117.425318, 29.650759)" y1="265.883" x2="602.519999" gradientUnits="userSpaceOnUse" y2="265.883" id="426d0a53b4"><stop stop-opacity="1" stop-color="rgb(79.998779%, 79.998779%, 79.998779%)" offset="0"/><stop stop-opacity="1" stop-color="rgb(79.827881%, 79.827881%, 79.827881%)" offset="0.0078125"/><stop stop-opacity="1" stop-color="rgb(79.48761%, 79.48761%, 79.48761%)" offset="0.015625"/><stop stop-opacity="1" stop-color="rgb(79.147339%, 79.147339%, 79.147339%)" offset="0.0234375"/><stop stop-opacity="1" stop-color="rgb(78.805542%, 78.805542%, 78.805542%)" offset="0.03125"/><stop stop-opacity="1" stop-color="rgb(78.465271%, 78.465271%, 78.465271%)" offset="0.0390625"/><stop stop-opacity="1" stop-color="rgb(78.123474%, 78.123474%, 78.123474%)" offset="0.046875"/><stop stop-opacity="1" stop-color="rgb(77.783203%, 77.783203%, 77.783203%)" offset="0.0546875"/><stop stop-opacity="1" stop-color="rgb(77.442932%, 77.442932%, 77.442932%)" offset="0.0625"/><stop stop-opacity="1" stop-color="rgb(77.101135%, 77.101135%, 77.101135%)" offset="0.0703125"/><stop stop-opacity="1" stop-color="rgb(76.760864%, 76.760864%, 76.760864%)" offset="0.078125"/><stop stop-opacity="1" stop-color="rgb(76.419067%, 76.419067%, 76.419067%)" offset="0.0859375"/><stop stop-opacity="1" stop-color="rgb(76.078796%, 76.078796%, 76.078796%)" offset="0.09375"/><stop stop-opacity="1" stop-color="rgb(75.737%, 75.737%, 75.737%)" offset="0.101563"/><stop stop-opacity="1" stop-color="rgb(75.396729%, 75.396729%, 75.396729%)" offset="0.109375"/><stop stop-opacity="1" stop-color="rgb(75.054932%, 75.054932%, 75.054932%)" offset="0.117188"/><stop stop-opacity="1" stop-color="rgb(74.714661%, 74.714661%, 74.714661%)" offset="0.125"/><stop stop-opacity="1" stop-color="rgb(74.372864%, 74.372864%, 74.372864%)" offset="0.132813"/><stop stop-opacity="1" stop-color="rgb(74.032593%, 74.032593%, 74.032593%)" offset="0.140625"/><stop stop-opacity="1" stop-color="rgb(73.690796%, 73.690796%, 73.690796%)" offset="0.148438"/><stop stop-opacity="1" stop-color="rgb(73.350525%, 73.350525%, 73.350525%)" offset="0.15625"/><stop stop-opacity="1" stop-color="rgb(73.008728%, 73.008728%, 73.008728%)" offset="0.164063"/><stop stop-opacity="1" stop-color="rgb(72.668457%, 72.668457%, 72.668457%)" offset="0.171875"/><stop stop-opacity="1" stop-color="rgb(72.32666%, 72.32666%, 72.32666%)" offset="0.179688"/><stop stop-opacity="1" stop-color="rgb(71.986389%, 71.986389%, 71.986389%)" offset="0.1875"/><stop stop-opacity="1" stop-color="rgb(71.644592%, 71.644592%, 71.644592%)" offset="0.195313"/><stop stop-opacity="1" stop-color="rgb(71.304321%, 71.304321%, 71.304321%)" offset="0.203125"/><stop stop-opacity="1" stop-color="rgb(70.962524%, 70.962524%, 70.962524%)" offset="0.210938"/><stop stop-opacity="1" stop-color="rgb(70.622253%, 70.622253%, 70.622253%)" offset="0.21875"/><stop stop-opacity="1" stop-color="rgb(70.280457%, 70.280457%, 70.280457%)" offset="0.226563"/><stop stop-opacity="1" stop-color="rgb(69.940186%, 69.940186%, 69.940186%)" offset="0.234375"/><stop stop-opacity="1" stop-color="rgb(69.599915%, 69.599915%, 69.599915%)" offset="0.242187"/><stop stop-opacity="1" stop-color="rgb(69.258118%, 69.258118%, 69.258118%)" offset="0.25"/><stop stop-opacity="1" stop-color="rgb(68.917847%, 68.917847%, 68.917847%)" offset="0.257813"/><stop stop-opacity="1" stop-color="rgb(68.57605%, 68.57605%, 68.57605%)" offset="0.265625"/><stop stop-opacity="1" stop-color="rgb(68.235779%, 68.235779%, 68.235779%)" offset="0.273438"/><stop stop-opacity="1" stop-color="rgb(67.893982%, 67.893982%, 67.893982%)" offset="0.28125"/><stop stop-opacity="1" stop-color="rgb(67.553711%, 67.553711%, 67.553711%)" offset="0.289062"/><stop stop-opacity="1" stop-color="rgb(67.211914%, 67.211914%, 67.211914%)" offset="0.296875"/><stop stop-opacity="1" stop-color="rgb(66.871643%, 66.871643%, 66.871643%)" offset="0.304688"/><stop stop-opacity="1" stop-color="rgb(66.529846%, 66.529846%, 66.529846%)" offset="0.3125"/><stop stop-opacity="1" stop-color="rgb(66.189575%, 66.189575%, 66.189575%)" offset="0.320312"/><stop stop-opacity="1" stop-color="rgb(65.847778%, 65.847778%, 65.847778%)" offset="0.328125"/><stop stop-opacity="1" stop-color="rgb(65.507507%, 65.507507%, 65.507507%)" offset="0.335938"/><stop stop-opacity="1" stop-color="rgb(65.16571%, 65.16571%, 65.16571%)" offset="0.34375"/><stop stop-opacity="1" stop-color="rgb(64.825439%, 64.825439%, 64.825439%)" offset="0.351562"/><stop stop-opacity="1" stop-color="rgb(64.483643%, 64.483643%, 64.483643%)" offset="0.359375"/><stop stop-opacity="1" stop-color="rgb(64.143372%, 64.143372%, 64.143372%)" offset="0.367188"/><stop stop-opacity="1" stop-color="rgb(63.801575%, 63.801575%, 63.801575%)" offset="0.375"/><stop stop-opacity="1" stop-color="rgb(63.461304%, 63.461304%, 63.461304%)" offset="0.382813"/><stop stop-opacity="1" stop-color="rgb(63.119507%, 63.119507%, 63.119507%)" offset="0.390625"/><stop stop-opacity="1" stop-color="rgb(62.779236%, 62.779236%, 62.779236%)" offset="0.398438"/><stop stop-opacity="1" stop-color="rgb(62.437439%, 62.437439%, 62.437439%)" offset="0.40625"/><stop stop-opacity="1" stop-color="rgb(62.097168%, 62.097168%, 62.097168%)" offset="0.414063"/><stop stop-opacity="1" stop-color="rgb(61.756897%, 61.756897%, 61.756897%)" offset="0.421875"/><stop stop-opacity="1" stop-color="rgb(61.4151%, 61.4151%, 61.4151%)" offset="0.429688"/><stop stop-opacity="1" stop-color="rgb(61.074829%, 61.074829%, 61.074829%)" offset="0.4375"/><stop stop-opacity="1" stop-color="rgb(60.733032%, 60.733032%, 60.733032%)" offset="0.445313"/><stop stop-opacity="1" stop-color="rgb(60.392761%, 60.392761%, 60.392761%)" offset="0.453125"/><stop stop-opacity="1" stop-color="rgb(60.050964%, 60.050964%, 60.050964%)" offset="0.460938"/><stop stop-opacity="1" stop-color="rgb(59.710693%, 59.710693%, 59.710693%)" offset="0.46875"/><stop stop-opacity="1" stop-color="rgb(59.368896%, 59.368896%, 59.368896%)" offset="0.476563"/><stop stop-opacity="1" stop-color="rgb(59.028625%, 59.028625%, 59.028625%)" offset="0.484375"/><stop stop-opacity="1" stop-color="rgb(58.686829%, 58.686829%, 58.686829%)" offset="0.492188"/><stop stop-opacity="1" stop-color="rgb(58.346558%, 58.346558%, 58.346558%)" offset="0.5"/><stop stop-opacity="1" stop-color="rgb(58.004761%, 58.004761%, 58.004761%)" offset="0.507813"/><stop stop-opacity="1" stop-color="rgb(57.66449%, 57.66449%, 57.66449%)" offset="0.515625"/><stop stop-opacity="1" stop-color="rgb(57.322693%, 57.322693%, 57.322693%)" offset="0.523438"/><stop stop-opacity="1" stop-color="rgb(56.982422%, 56.982422%, 56.982422%)" offset="0.53125"/><stop stop-opacity="1" stop-color="rgb(56.640625%, 56.640625%, 56.640625%)" offset="0.539063"/><stop stop-opacity="1" stop-color="rgb(56.300354%, 56.300354%, 56.300354%)" offset="0.546875"/><stop stop-opacity="1" stop-color="rgb(55.958557%, 55.958557%, 55.958557%)" offset="0.554688"/><stop stop-opacity="1" stop-color="rgb(55.618286%, 55.618286%, 55.618286%)" offset="0.5625"/><stop stop-opacity="1" stop-color="rgb(55.276489%, 55.276489%, 55.276489%)" offset="0.570313"/><stop stop-opacity="1" stop-color="rgb(54.936218%, 54.936218%, 54.936218%)" offset="0.578125"/><stop stop-opacity="1" stop-color="rgb(54.594421%, 54.594421%, 54.594421%)" offset="0.585938"/><stop stop-opacity="1" stop-color="rgb(54.25415%, 54.25415%, 54.25415%)" offset="0.59375"/><stop stop-opacity="1" stop-color="rgb(53.913879%, 53.913879%, 53.913879%)" offset="0.601563"/><stop stop-opacity="1" stop-color="rgb(53.572083%, 53.572083%, 53.572083%)" offset="0.609375"/><stop stop-opacity="1" stop-color="rgb(53.231812%, 53.231812%, 53.231812%)" offset="0.617188"/><stop stop-opacity="1" stop-color="rgb(52.890015%, 52.890015%, 52.890015%)" offset="0.625"/><stop stop-opacity="1" stop-color="rgb(52.549744%, 52.549744%, 52.549744%)" offset="0.632813"/><stop stop-opacity="1" stop-color="rgb(52.207947%, 52.207947%, 52.207947%)" offset="0.640625"/><stop stop-opacity="1" stop-color="rgb(51.867676%, 51.867676%, 51.867676%)" offset="0.648438"/><stop stop-opacity="1" stop-color="rgb(51.525879%, 51.525879%, 51.525879%)" offset="0.65625"/><stop stop-opacity="1" stop-color="rgb(51.185608%, 51.185608%, 51.185608%)" offset="0.664063"/><stop stop-opacity="1" stop-color="rgb(50.843811%, 50.843811%, 50.843811%)" offset="0.671875"/><stop stop-opacity="1" stop-color="rgb(50.50354%, 50.50354%, 50.50354%)" offset="0.679688"/><stop stop-opacity="1" stop-color="rgb(50.161743%, 50.161743%, 50.161743%)" offset="0.6875"/><stop stop-opacity="1" stop-color="rgb(49.821472%, 49.821472%, 49.821472%)" offset="0.695312"/><stop stop-opacity="1" stop-color="rgb(49.479675%, 49.479675%, 49.479675%)" offset="0.703125"/><stop stop-opacity="1" stop-color="rgb(49.139404%, 49.139404%, 49.139404%)" offset="0.710938"/><stop stop-opacity="1" stop-color="rgb(48.797607%, 48.797607%, 48.797607%)" offset="0.71875"/><stop stop-opacity="1" stop-color="rgb(48.457336%, 48.457336%, 48.457336%)" offset="0.726563"/><stop stop-opacity="1" stop-color="rgb(48.11554%, 48.11554%, 48.11554%)" offset="0.734375"/><stop stop-opacity="1" stop-color="rgb(47.775269%, 47.775269%, 47.775269%)" offset="0.742188"/><stop stop-opacity="1" stop-color="rgb(47.433472%, 47.433472%, 47.433472%)" offset="0.75"/><stop stop-opacity="1" stop-color="rgb(47.093201%, 47.093201%, 47.093201%)" offset="0.757813"/><stop stop-opacity="1" stop-color="rgb(46.751404%, 46.751404%, 46.751404%)" offset="0.765625"/><stop stop-opacity="1" stop-color="rgb(46.411133%, 46.411133%, 46.411133%)" offset="0.773438"/><stop stop-opacity="1" stop-color="rgb(46.070862%, 46.070862%, 46.070862%)" offset="0.78125"/><stop stop-opacity="1" stop-color="rgb(45.729065%, 45.729065%, 45.729065%)" offset="0.789063"/><stop stop-opacity="1" stop-color="rgb(45.388794%, 45.388794%, 45.388794%)" offset="0.796875"/><stop stop-opacity="1" stop-color="rgb(45.046997%, 45.046997%, 45.046997%)" offset="0.804688"/><stop stop-opacity="1" stop-color="rgb(44.706726%, 44.706726%, 44.706726%)" offset="0.8125"/><stop stop-opacity="1" stop-color="rgb(44.364929%, 44.364929%, 44.364929%)" offset="0.820313"/><stop stop-opacity="1" stop-color="rgb(44.024658%, 44.024658%, 44.024658%)" offset="0.828125"/><stop stop-opacity="1" stop-color="rgb(43.682861%, 43.682861%, 43.682861%)" offset="0.835938"/><stop stop-opacity="1" stop-color="rgb(43.34259%, 43.34259%, 43.34259%)" offset="0.84375"/><stop stop-opacity="1" stop-color="rgb(43.000793%, 43.000793%, 43.000793%)" offset="0.851563"/><stop stop-opacity="1" stop-color="rgb(42.660522%, 42.660522%, 42.660522%)" offset="0.859375"/><stop stop-opacity="1" stop-color="rgb(42.318726%, 42.318726%, 42.318726%)" offset="0.867188"/><stop stop-opacity="1" stop-color="rgb(41.978455%, 41.978455%, 41.978455%)" offset="0.875"/><stop stop-opacity="1" stop-color="rgb(41.636658%, 41.636658%, 41.636658%)" offset="0.882813"/><stop stop-opacity="1" stop-color="rgb(41.296387%, 41.296387%, 41.296387%)" offset="0.890625"/><stop stop-opacity="1" stop-color="rgb(40.95459%, 40.95459%, 40.95459%)" offset="0.898438"/><stop stop-opacity="1" stop-color="rgb(40.614319%, 40.614319%, 40.614319%)" offset="0.90625"/><stop stop-opacity="1" stop-color="rgb(40.272522%, 40.272522%, 40.272522%)" offset="0.914063"/><stop stop-opacity="1" stop-color="rgb(40.05127%, 40.05127%, 40.05127%)" offset="0.921875"/><stop stop-opacity="1" stop-color="rgb(39.99939%, 39.99939%, 39.99939%)" offset="0.9375"/><stop stop-opacity="1" stop-color="rgb(39.99939%, 39.99939%, 39.99939%)" offset="1"/></linearGradient><clipPath id="70609e5286"><path d="M 125 102 L 261 102 L 261 247 L 125 247 Z M 125 102 " clip-rule="nonzero"/></clipPath><clipPath id="5ce081e1ce"><path d="M 188.007812 172.785156 C 140.898438 153.023438 115.074219 130.476562 129.761719 102.628906 C 132.722656 157.402344 286.226562 150.476562 256.976562 246.628906 C 252.75 203.9375 218.925781 188.789062 188.007812 172.785156 Z M 188.007812 172.785156 " clip-rule="evenodd"/></clipPath><linearGradient x1="-10.520011" gradientTransform="matrix(0.223541, 0, 0, 0.223541, 117.425318, 29.650759)" y1="648.547" x2="755.129976" gradientUnits="userSpaceOnUse" y2="648.547" id="36af0d3d92"><stop stop-opacity="1" stop-color="rgb(3.898621%, 45.098877%, 68.998718%)" offset="0"/><stop stop-opacity="1" stop-color="rgb(3.903198%, 45.095825%, 68.997192%)" offset="0.0625"/><stop stop-opacity="1" stop-color="rgb(4.101562%, 44.976807%, 68.951416%)" offset="0.09375"/><stop stop-opacity="1" stop-color="rgb(4.490662%, 44.741821%, 68.859863%)" offset="0.125"/><stop stop-opacity="1" stop-color="rgb(4.878235%, 44.508362%, 68.769836%)" offset="0.15625"/><stop stop-opacity="1" stop-color="rgb(5.267334%, 44.274902%, 68.678284%)" offset="0.1875"/><stop stop-opacity="1" stop-color="rgb(5.654907%, 44.041443%, 68.586731%)" offset="0.21875"/><stop stop-opacity="1" stop-color="rgb(6.04248%, 43.807983%, 68.495178%)" offset="0.25"/><stop stop-opacity="1" stop-color="rgb(6.43158%, 43.574524%, 68.405151%)" offset="0.28125"/><stop stop-opacity="1" stop-color="rgb(6.819153%, 43.341064%, 68.313599%)" offset="0.3125"/><stop stop-opacity="1" stop-color="rgb(7.208252%, 43.106079%, 68.222046%)" offset="0.34375"/><stop stop-opacity="1" stop-color="rgb(7.595825%, 42.87262%, 68.132019%)" offset="0.375"/><stop stop-opacity="1" stop-color="rgb(7.983398%, 42.63916%, 68.040466%)" offset="0.40625"/><stop stop-opacity="1" stop-color="rgb(8.372498%, 42.405701%, 67.948914%)" offset="0.4375"/><stop stop-opacity="1" stop-color="rgb(8.760071%, 42.172241%, 67.857361%)" offset="0.46875"/><stop stop-opacity="1" stop-color="rgb(9.147644%, 41.938782%, 67.767334%)" offset="0.5"/><stop stop-opacity="1" stop-color="rgb(9.536743%, 41.703796%, 67.675781%)" offset="0.53125"/><stop stop-opacity="1" stop-color="rgb(9.924316%, 41.470337%, 67.584229%)" offset="0.5625"/><stop stop-opacity="1" stop-color="rgb(10.313416%, 41.236877%, 67.494202%)" offset="0.59375"/><stop stop-opacity="1" stop-color="rgb(10.700989%, 41.003418%, 67.402649%)" offset="0.625"/><stop stop-opacity="1" stop-color="rgb(11.088562%, 40.769958%, 67.311096%)" offset="0.65625"/><stop stop-opacity="1" stop-color="rgb(11.477661%, 40.536499%, 67.221069%)" offset="0.6875"/><stop stop-opacity="1" stop-color="rgb(11.865234%, 40.30304%, 67.129517%)" offset="0.71875"/><stop stop-opacity="1" stop-color="rgb(12.254333%, 40.068054%, 67.037964%)" offset="0.75"/><stop stop-opacity="1" stop-color="rgb(12.641907%, 39.834595%, 66.946411%)" offset="0.78125"/><stop stop-opacity="1" stop-color="rgb(13.02948%, 39.601135%, 66.856384%)" offset="0.8125"/><stop stop-opacity="1" stop-color="rgb(13.418579%, 39.367676%, 66.764832%)" offset="0.84375"/><stop stop-opacity="1" stop-color="rgb(13.65509%, 39.225769%, 66.708374%)" offset="0.875"/><stop stop-opacity="1" stop-color="rgb(13.699341%, 39.199829%, 66.699219%)" offset="1"/></linearGradient><clipPath id="0204bf17c7"><path d="M 117 121 L 252 121 L 252 270.632812 L 117 270.632812 Z M 117 121 " clip-rule="nonzero"/></clipPath><clipPath id="74182d3bb3"><path d="M 122.320312 121.5625 C 129.121094 181.917969 280.96875 177.359375 246.660156 270.546875 C 238.371094 186.863281 88.769531 185.191406 122.320312 121.5625 Z M 122.320312 121.5625 " clip-rule="evenodd"/></clipPath><linearGradient x1="-128.190011" gradientTransform="matrix(0.223541, 0, 0, 0.223541, 117.425318, 29.650759)" y1="744.40198" x2="731.600017" gradientUnits="userSpaceOnUse" y2="744.40198" id="deb7b032cd"><stop stop-opacity="1" stop-color="rgb(3.898621%, 45.098877%, 68.998718%)" offset="0"/><stop stop-opacity="1" stop-color="rgb(3.898621%, 45.098877%, 68.998718%)" offset="0.125"/><stop stop-opacity="1" stop-color="rgb(3.948975%, 45.068359%, 68.986511%)" offset="0.15625"/><stop stop-opacity="1" stop-color="rgb(4.109192%, 44.972229%, 68.94989%)" offset="0.171875"/><stop stop-opacity="1" stop-color="rgb(4.327393%, 44.841003%, 68.89801%)" offset="0.1875"/><stop stop-opacity="1" stop-color="rgb(4.547119%, 44.708252%, 68.84613%)" offset="0.203125"/><stop stop-opacity="1" stop-color="rgb(4.766846%, 44.577026%, 68.795776%)" offset="0.21875"/><stop stop-opacity="1" stop-color="rgb(4.985046%, 44.444275%, 68.743896%)" offset="0.234375"/><stop stop-opacity="1" stop-color="rgb(5.204773%, 44.313049%, 68.692017%)" offset="0.25"/><stop stop-opacity="1" stop-color="rgb(5.4245%, 44.180298%, 68.641663%)" offset="0.265625"/><stop stop-opacity="1" stop-color="rgb(5.6427%, 44.049072%, 68.589783%)" offset="0.28125"/><stop stop-opacity="1" stop-color="rgb(5.862427%, 43.916321%, 68.537903%)" offset="0.296875"/><stop stop-opacity="1" stop-color="rgb(6.082153%, 43.785095%, 68.486023%)" offset="0.3125"/><stop stop-opacity="1" stop-color="rgb(6.300354%, 43.652344%, 68.435669%)" offset="0.328125"/><stop stop-opacity="1" stop-color="rgb(6.520081%, 43.521118%, 68.383789%)" offset="0.34375"/><stop stop-opacity="1" stop-color="rgb(6.739807%, 43.388367%, 68.331909%)" offset="0.359375"/><stop stop-opacity="1" stop-color="rgb(6.958008%, 43.257141%, 68.281555%)" offset="0.375"/><stop stop-opacity="1" stop-color="rgb(7.177734%, 43.12439%, 68.229675%)" offset="0.390625"/><stop stop-opacity="1" stop-color="rgb(7.395935%, 42.993164%, 68.177795%)" offset="0.40625"/><stop stop-opacity="1" stop-color="rgb(7.615662%, 42.860413%, 68.127441%)" offset="0.421875"/><stop stop-opacity="1" stop-color="rgb(7.835388%, 42.729187%, 68.075562%)" offset="0.4375"/><stop stop-opacity="1" stop-color="rgb(8.053589%, 42.597961%, 68.023682%)" offset="0.453125"/><stop stop-opacity="1" stop-color="rgb(8.273315%, 42.46521%, 67.971802%)" offset="0.46875"/><stop stop-opacity="1" stop-color="rgb(8.493042%, 42.333984%, 67.921448%)" offset="0.484375"/><stop stop-opacity="1" stop-color="rgb(8.711243%, 42.201233%, 67.869568%)" offset="0.5"/><stop stop-opacity="1" stop-color="rgb(8.930969%, 42.070007%, 67.817688%)" offset="0.515625"/><stop stop-opacity="1" stop-color="rgb(9.150696%, 41.937256%, 67.767334%)" offset="0.53125"/><stop stop-opacity="1" stop-color="rgb(9.368896%, 41.80603%, 67.715454%)" offset="0.546875"/><stop stop-opacity="1" stop-color="rgb(9.588623%, 41.673279%, 67.663574%)" offset="0.5625"/><stop stop-opacity="1" stop-color="rgb(9.80835%, 41.542053%, 67.611694%)" offset="0.578125"/><stop stop-opacity="1" stop-color="rgb(10.02655%, 41.409302%, 67.56134%)" offset="0.59375"/><stop stop-opacity="1" stop-color="rgb(10.246277%, 41.278076%, 67.50946%)" offset="0.609375"/><stop stop-opacity="1" stop-color="rgb(10.464478%, 41.145325%, 67.457581%)" offset="0.625"/><stop stop-opacity="1" stop-color="rgb(10.684204%, 41.014099%, 67.407227%)" offset="0.640625"/><stop stop-opacity="1" stop-color="rgb(10.903931%, 40.881348%, 67.355347%)" offset="0.65625"/><stop stop-opacity="1" stop-color="rgb(11.122131%, 40.750122%, 67.303467%)" offset="0.671875"/><stop stop-opacity="1" stop-color="rgb(11.341858%, 40.617371%, 67.251587%)" offset="0.6875"/><stop stop-opacity="1" stop-color="rgb(11.561584%, 40.486145%, 67.201233%)" offset="0.703125"/><stop stop-opacity="1" stop-color="rgb(11.779785%, 40.353394%, 67.149353%)" offset="0.71875"/><stop stop-opacity="1" stop-color="rgb(11.999512%, 40.222168%, 67.097473%)" offset="0.734375"/><stop stop-opacity="1" stop-color="rgb(12.219238%, 40.089417%, 67.047119%)" offset="0.75"/><stop stop-opacity="1" stop-color="rgb(12.437439%, 39.958191%, 66.995239%)" offset="0.765625"/><stop stop-opacity="1" stop-color="rgb(12.657166%, 39.825439%, 66.943359%)" offset="0.78125"/><stop stop-opacity="1" stop-color="rgb(12.876892%, 39.694214%, 66.891479%)" offset="0.796875"/><stop stop-opacity="1" stop-color="rgb(13.095093%, 39.561462%, 66.841125%)" offset="0.8125"/><stop stop-opacity="1" stop-color="rgb(13.314819%, 39.430237%, 66.789246%)" offset="0.828125"/><stop stop-opacity="1" stop-color="rgb(13.534546%, 39.299011%, 66.737366%)" offset="0.84375"/><stop stop-opacity="1" stop-color="rgb(13.671875%, 39.216614%, 66.705322%)" offset="0.875"/><stop stop-opacity="1" stop-color="rgb(13.699341%, 39.199829%, 66.699219%)" offset="1"/></linearGradient><clipPath id="dae15ed84d"><path d="M 115.613281 196.191406 L 174 196.191406 L 174 263.691406 L 115.613281 263.691406 Z M 115.613281 196.191406 " clip-rule="nonzero"/></clipPath></defs><g clip-path="url(#a97d4d86f3)"><g clip-path="url(#1d246d95d2)"><path fill="url(#51ac154eaf)" d="M 133.550781 29.652344 L 133.550781 116.203125 L 245.640625 116.203125 L 245.640625 29.652344 Z M 133.550781 29.652344 " fill-rule="nonzero"/></g></g><g clip-path="url(#94e23b1cca)"><g clip-path="url(#d2ea125033)"><path fill="url(#426d0a53b4)" d="M 141.335938 47.113281 L 141.335938 131.058594 L 252.113281 131.058594 L 252.113281 47.113281 Z M 141.335938 47.113281 " fill-rule="nonzero"/></g></g><g clip-path="url(#70609e5286)"><g clip-path="url(#5ce081e1ce)"><path fill="url(#36af0d3d92)" d="M 115.074219 102.628906 L 115.074219 246.628906 L 286.226562 246.628906 L 286.226562 102.628906 Z M 115.074219 102.628906 " fill-rule="nonzero"/></g></g><g clip-path="url(#0204bf17c7)"><g clip-path="url(#74182d3bb3)"><path fill="url(#deb7b032cd)" d="M 88.769531 121.5625 L 88.769531 270.546875 L 280.96875 270.546875 L 280.96875 121.5625 Z M 88.769531 121.5625 " fill-rule="nonzero"/></g></g><g clip-path="url(#dae15ed84d)"><path fill="#2364aa" d="M 157.988281 257.519531 C 163.730469 257.519531 169.066406 255.777344 173.492188 252.796875 C 167.378906 259.238281 158.738281 263.257812 149.160156 263.257812 C 130.640625 263.257812 115.625 248.242188 115.625 229.722656 C 115.625 211.203125 130.640625 196.191406 149.15625 196.191406 C 158.742188 196.191406 167.386719 200.210938 173.496094 206.660156 C 169.070312 203.675781 163.730469 201.933594 157.988281 201.933594 C 142.640625 201.933594 130.195312 214.375 130.195312 229.726562 C 130.195312 245.074219 142.640625 257.519531 157.988281 257.519531 Z M 157.988281 257.519531 " fill-opacity="1" fill-rule="nonzero"/></g><path fill="#4ed7fc" d="M 142.113281 225.628906 C 139.484375 228.703125 137.976562 232.355469 137.546875 236.089844 C 136.894531 229.871094 138.699219 223.402344 143.082031 218.273438 C 151.554688 208.359375 166.464844 207.1875 176.378906 215.664062 C 186.296875 224.136719 187.464844 239.046875 178.992188 248.960938 C 174.605469 254.09375 168.5 256.882812 162.25 257.207031 C 165.875 256.199219 169.25 254.140625 171.878906 251.066406 C 178.902344 242.847656 177.933594 230.488281 169.710938 223.464844 C 161.496094 216.441406 149.136719 217.410156 142.113281 225.628906 Z M 142.113281 225.628906 " fill-opacity="1" fill-rule="nonzero"/><path fill="#38a8c7" d="M 142.441406 249 C 145.375 252.886719 149.273438 255.605469 153.554688 257.078125 C 146.074219 256.234375 138.945312 252.441406 134.050781 245.960938 C 124.59375 233.433594 127.078125 215.613281 139.605469 206.152344 C 152.132812 196.695312 169.953125 199.183594 179.410156 211.707031 C 184.304688 218.191406 186.003906 226.089844 184.761719 233.515625 C 184.519531 228.996094 182.972656 224.496094 180.039062 220.613281 C 172.199219 210.230469 157.429688 208.171875 147.046875 216.007812 C 136.664062 223.847656 134.605469 238.621094 142.441406 249 Z M 142.441406 249 " fill-opacity="1" fill-rule="nonzero"/><g fill="#2364aa" fill-opacity="1"><g transform="translate(56.745896, 317.357432)"><g><path d="M 2.640625 -0.03125 C 2.441406 -0.03125 2.234375 -0.101562 2.015625 -0.25 C 1.816406 -0.382812 1.632812 -0.539062 1.46875 -0.71875 C 1.320312 -0.90625 1.191406 -1.109375 1.078125 -1.328125 C 1.035156 -1.421875 1.003906 -1.515625 0.984375 -1.609375 C 0.960938 -1.703125 0.96875 -1.78125 1 -1.84375 L 3.21875 -12.0625 L 9.3125 -8.265625 L 8.671875 -5.359375 L 13.609375 -5.359375 L 14.375 -8.921875 L 4.109375 -16.09375 L 6.625 -27.65625 L 23.390625 -27.65625 C 23.609375 -27.65625 23.816406 -27.585938 24.015625 -27.453125 C 24.210938 -27.328125 24.394531 -27.171875 24.5625 -26.984375 C 24.71875 -26.804688 24.851562 -26.609375 24.96875 -26.390625 C 25.03125 -26.171875 25.054688 -25.988281 25.046875 -25.84375 L 22.953125 -16.296875 L 16.84375 -20.078125 L 17.3125 -22.328125 L 12.453125 -22.328125 L 11.890625 -19.703125 L 22.125 -12.515625 L 19.40625 -0.03125 Z M 2.640625 -0.03125 "/></g></g></g><g fill="#2364aa" fill-opacity="1"><g transform="translate(82.804409, 317.357432)"><g><path d="M 22.78125 -27.65625 L 21.0625 -19.765625 L 14.125 -19.765625 L 14.671875 -22.328125 L 11.828125 -22.328125 L 10.609375 -16.671875 L 19.515625 -16.671875 L 12.265625 -11.34375 L 9.4375 -11.34375 L 6.953125 -0.03125 L 0 -0.03125 L 5.203125 -23.796875 L 2.25 -27.65625 Z M 22.78125 -27.65625 "/></g></g></g><g fill="#2364aa" fill-opacity="1"><g transform="translate(106.072719, 317.357432)"><g/></g></g><g fill="#2364aa" fill-opacity="1"><g transform="translate(123.262369, 317.357432)"><g><path d="M 1.765625 -0.03125 L 6.984375 -23.796875 L 4.03125 -27.65625 L 25.109375 -27.65625 C 25.316406 -27.65625 25.523438 -27.585938 25.734375 -27.453125 C 25.835938 -27.367188 25.929688 -27.289062 26.015625 -27.21875 C 26.109375 -27.144531 26.195312 -27.054688 26.28125 -26.953125 C 26.445312 -26.796875 26.582031 -26.597656 26.6875 -26.359375 C 26.789062 -26.179688 26.820312 -26.007812 26.78125 -25.84375 L 24.421875 -15.09375 L 21 -13.359375 L 23.671875 -11.65625 L 21.53125 -1.84375 C 21.507812 -1.707031 21.398438 -1.535156 21.203125 -1.328125 C 21.109375 -1.203125 21.007812 -1.085938 20.90625 -0.984375 C 20.800781 -0.890625 20.6875 -0.800781 20.5625 -0.71875 C 20.425781 -0.625 20.296875 -0.535156 20.171875 -0.453125 C 20.046875 -0.378906 19.914062 -0.300781 19.78125 -0.21875 C 19.488281 -0.09375 19.25 -0.03125 19.0625 -0.03125 Z M 19.03125 -22.328125 L 13.609375 -22.328125 L 12.53125 -17.375 L 10.5625 -16.09375 L 11.515625 -12.734375 L 9.890625 -5.359375 L 15.34375 -5.359375 L 16.625 -11.1875 L 13.859375 -9.8125 L 12.265625 -15.453125 L 18.296875 -18.90625 Z M 19.03125 -22.328125 "/></g></g></g><g fill="#2364aa" fill-opacity="1"><g transform="translate(151.288982, 317.357432)"><g><path d="M 12.578125 -27.65625 L 7.71875 -5.359375 L 12.609375 -5.359375 L 17.484375 -27.65625 L 24.4375 -27.65625 L 18.421875 -0.03125 L 1.6875 -0.03125 C 1.476562 -0.03125 1.273438 -0.101562 1.078125 -0.25 C 0.953125 -0.3125 0.84375 -0.382812 0.75 -0.46875 C 0.664062 -0.550781 0.582031 -0.632812 0.5 -0.71875 C 0.351562 -0.914062 0.226562 -1.117188 0.125 -1.328125 C 0.0195312 -1.523438 -0.0078125 -1.695312 0.03125 -1.84375 L 4.828125 -23.828125 L 1.875 -27.65625 Z M 12.578125 -27.65625 "/></g></g></g><g fill="#2364aa" fill-opacity="1"><g transform="translate(176.625041, 317.357432)"><g><path d="M 2.640625 -0.03125 C 2.441406 -0.03125 2.234375 -0.101562 2.015625 -0.25 C 1.816406 -0.382812 1.632812 -0.539062 1.46875 -0.71875 C 1.320312 -0.90625 1.191406 -1.109375 1.078125 -1.328125 C 1.035156 -1.421875 1.003906 -1.515625 0.984375 -1.609375 C 0.960938 -1.703125 0.96875 -1.78125 1 -1.84375 L 3.21875 -12.0625 L 9.3125 -8.265625 L 8.671875 -5.359375 L 13.609375 -5.359375 L 14.375 -8.921875 L 4.109375 -16.09375 L 6.625 -27.65625 L 23.390625 -27.65625 C 23.609375 -27.65625 23.816406 -27.585938 24.015625 -27.453125 C 24.210938 -27.328125 24.394531 -27.171875 24.5625 -26.984375 C 24.71875 -26.804688 24.851562 -26.609375 24.96875 -26.390625 C 25.03125 -26.171875 25.054688 -25.988281 25.046875 -25.84375 L 22.953125 -16.296875 L 16.84375 -20.078125 L 17.3125 -22.328125 L 12.453125 -22.328125 L 11.890625 -19.703125 L 22.125 -12.515625 L 19.40625 -0.03125 Z M 2.640625 -0.03125 "/></g></g></g><g fill="#2364aa" fill-opacity="1"><g transform="translate(202.683554, 317.357432)"><g><path d="M 2.265625 -27.65625 L 13 -27.65625 L 6.984375 -0.03125 L 0.03125 -0.03125 L 5.203125 -23.796875 Z M 2.265625 -27.65625 "/></g></g></g><g fill="#2364aa" fill-opacity="1"><g transform="translate(216.161245, 317.357432)"><g><path d="M 7.40625 -0.171875 L 0.453125 -0.171875 L 5.625 -23.953125 L 2.6875 -27.8125 L 13.109375 -27.8125 L 16.59375 -16.671875 L 19.015625 -27.8125 L 25.9375 -27.8125 L 19.953125 -0.46875 L 16.015625 2.46875 L 10.34375 -13.609375 Z M 7.40625 -0.171875 "/></g></g></g><g fill="#2364aa" fill-opacity="1"><g transform="translate(242.942232, 317.357432)"><g><path d="M 22.796875 -27.65625 L 21.0625 -19.765625 L 14.15625 -19.765625 L 14.703125 -22.328125 L 11.859375 -22.328125 L 10.609375 -16.671875 L 19.515625 -16.671875 L 12.28125 -11.34375 L 9.4375 -11.34375 L 8.140625 -5.359375 L 10.984375 -5.359375 L 11.5625 -7.953125 L 18.484375 -7.953125 L 16.75 -0.03125 L 0.03125 -0.03125 L 5.234375 -23.796875 L 2.265625 -27.65625 Z M 22.796875 -27.65625 "/></g></g></g><g fill="#2364aa" fill-opacity="1"><g transform="translate(266.135812, 317.357432)"><g><path d="M 2.640625 -0.03125 C 2.441406 -0.03125 2.234375 -0.101562 2.015625 -0.25 C 1.816406 -0.382812 1.632812 -0.539062 1.46875 -0.71875 C 1.320312 -0.90625 1.191406 -1.109375 1.078125 -1.328125 C 1.035156 -1.421875 1.003906 -1.515625 0.984375 -1.609375 C 0.960938 -1.703125 0.96875 -1.78125 1 -1.84375 L 3.21875 -12.0625 L 9.3125 -8.265625 L 8.671875 -5.359375 L 13.609375 -5.359375 L 14.375 -8.921875 L 4.109375 -16.09375 L 6.625 -27.65625 L 23.390625 -27.65625 C 23.609375 -27.65625 23.816406 -27.585938 24.015625 -27.453125 C 24.210938 -27.328125 24.394531 -27.171875 24.5625 -26.984375 C 24.71875 -26.804688 24.851562 -26.609375 24.96875 -26.390625 C 25.03125 -26.171875 25.054688 -25.988281 25.046875 -25.84375 L 22.953125 -16.296875 L 16.84375 -20.078125 L 17.3125 -22.328125 L 12.453125 -22.328125 L 11.890625 -19.703125 L 22.125 -12.515625 L 19.40625 -0.03125 Z M 2.640625 -0.03125 "/></g></g></g><g fill="#2364aa" fill-opacity="1"><g transform="translate(292.194325, 317.357432)"><g><path d="M 2.640625 -0.03125 C 2.441406 -0.03125 2.234375 -0.101562 2.015625 -0.25 C 1.816406 -0.382812 1.632812 -0.539062 1.46875 -0.71875 C 1.320312 -0.90625 1.191406 -1.109375 1.078125 -1.328125 C 1.035156 -1.421875 1.003906 -1.515625 0.984375 -1.609375 C 0.960938 -1.703125 0.96875 -1.78125 1 -1.84375 L 3.21875 -12.0625 L 9.3125 -8.265625 L 8.671875 -5.359375 L 13.609375 -5.359375 L 14.375 -8.921875 L 4.109375 -16.09375 L 6.625 -27.65625 L 23.390625 -27.65625 C 23.609375 -27.65625 23.816406 -27.585938 24.015625 -27.453125 C 24.210938 -27.328125 24.394531 -27.171875 24.5625 -26.984375 C 24.71875 -26.804688 24.851562 -26.609375 24.96875 -26.390625 C 25.03125 -26.171875 25.054688 -25.988281 25.046875 -25.84375 L 22.953125 -16.296875 L 16.84375 -20.078125 L 17.3125 -22.328125 L 12.453125 -22.328125 L 11.890625 -19.703125 L 22.125 -12.515625 L 19.40625 -0.03125 Z M 2.640625 -0.03125 "/></g></g></g><g fill="#3871c1" fill-opacity="1"><g transform="translate(80.909961, 339.373487)"><g><path d="M 1.21875 -0.015625 C 1.132812 -0.015625 1.039062 -0.046875 0.9375 -0.109375 C 0.84375 -0.171875 0.757812 -0.242188 0.6875 -0.328125 C 0.613281 -0.421875 0.550781 -0.515625 0.5 -0.609375 C 0.476562 -0.660156 0.460938 -0.707031 0.453125 -0.75 C 0.441406 -0.789062 0.445312 -0.828125 0.46875 -0.859375 L 1.484375 -5.59375 L 4.328125 -3.84375 L 4.03125 -2.484375 L 6.3125 -2.484375 L 6.671875 -4.140625 L 1.90625 -7.46875 L 3.078125 -12.84375 L 10.859375 -12.84375 C 10.960938 -12.84375 11.0625 -12.8125 11.15625 -12.75 C 11.238281 -12.6875 11.320312 -12.613281 11.40625 -12.53125 C 11.476562 -12.445312 11.539062 -12.351562 11.59375 -12.25 C 11.625 -12.144531 11.632812 -12.0625 11.625 -12 L 10.65625 -7.5625 L 7.8125 -9.328125 L 8.03125 -10.359375 L 5.78125 -10.359375 L 5.515625 -9.15625 L 10.265625 -5.8125 L 9.015625 -0.015625 Z M 1.21875 -0.015625 "/></g></g></g><g fill="#3871c1" fill-opacity="1"><g transform="translate(107.26433, 339.373487)"><g><path d="M 3.015625 -12.84375 L 10.78125 -12.84375 C 10.882812 -12.84375 10.976562 -12.8125 11.0625 -12.75 C 11.125 -12.71875 11.175781 -12.679688 11.21875 -12.640625 C 11.257812 -12.597656 11.296875 -12.5625 11.328125 -12.53125 C 11.398438 -12.4375 11.460938 -12.34375 11.515625 -12.25 C 11.554688 -12.144531 11.566406 -12.0625 11.546875 -12 L 8.921875 -0.015625 L 1.171875 -0.015625 C 1.078125 -0.015625 0.976562 -0.046875 0.875 -0.109375 C 0.78125 -0.171875 0.695312 -0.242188 0.625 -0.328125 C 0.550781 -0.421875 0.488281 -0.515625 0.4375 -0.609375 C 0.425781 -0.660156 0.410156 -0.707031 0.390625 -0.75 C 0.378906 -0.789062 0.382812 -0.828125 0.40625 -0.859375 Z M 3.96875 -2.484375 L 6.25 -2.484375 L 7.984375 -10.359375 L 5.6875 -10.359375 Z M 3.96875 -2.484375 "/></g></g></g><g fill="#3871c1" fill-opacity="1"><g transform="translate(133.456864, 339.373487)"><g><path d="M 1.046875 -12.84375 L 6.046875 -12.84375 L 3.78125 -2.484375 L 5.109375 -2.484375 L 5.375 -3.6875 L 8.578125 -3.6875 L 7.78125 -0.015625 L 0.015625 -0.015625 L 2.421875 -11.046875 Z M 1.046875 -12.84375 "/></g></g></g><g fill="#3871c1" fill-opacity="1"><g transform="translate(156.539865, 339.373487)"><g><path d="M 5.84375 -12.84375 L 3.578125 -2.484375 L 5.859375 -2.484375 L 8.125 -12.84375 L 11.34375 -12.84375 L 8.546875 -0.015625 L 0.78125 -0.015625 C 0.6875 -0.015625 0.59375 -0.046875 0.5 -0.109375 C 0.445312 -0.140625 0.398438 -0.175781 0.359375 -0.21875 C 0.316406 -0.257812 0.273438 -0.296875 0.234375 -0.328125 C 0.160156 -0.421875 0.101562 -0.515625 0.0625 -0.609375 C 0.0078125 -0.703125 -0.00390625 -0.785156 0.015625 -0.859375 L 2.25 -11.0625 L 0.875 -12.84375 Z M 5.84375 -12.84375 "/></g></g></g><g fill="#3871c1" fill-opacity="1"><g transform="translate(182.559014, 339.373487)"><g><path d="M 10.484375 -9.171875 L 7.25 -9.171875 L 7.5 -10.359375 L 6.703125 -10.359375 L 4.4375 -0.015625 L 1.203125 -0.015625 L 3.46875 -10.359375 L 1.953125 -10.359375 L 0.015625 -12.84375 L 11.28125 -12.84375 Z M 10.484375 -9.171875 "/></g></g></g><g fill="#3871c1" fill-opacity="1"><g transform="translate(208.578167, 339.373487)"><g><path d="M 1.046875 -12.84375 L 6.03125 -12.84375 L 3.234375 -0.015625 L 0.015625 -0.015625 L 2.421875 -11.046875 Z M 1.046875 -12.84375 "/></g></g></g><g fill="#3871c1" fill-opacity="1"><g transform="translate(229.094933, 339.373487)"><g><path d="M 3.015625 -12.84375 L 10.78125 -12.84375 C 10.882812 -12.84375 10.976562 -12.8125 11.0625 -12.75 C 11.125 -12.71875 11.175781 -12.679688 11.21875 -12.640625 C 11.257812 -12.597656 11.296875 -12.5625 11.328125 -12.53125 C 11.398438 -12.4375 11.460938 -12.34375 11.515625 -12.25 C 11.554688 -12.144531 11.566406 -12.0625 11.546875 -12 L 8.921875 -0.015625 L 1.171875 -0.015625 C 1.078125 -0.015625 0.976562 -0.046875 0.875 -0.109375 C 0.78125 -0.171875 0.695312 -0.242188 0.625 -0.328125 C 0.550781 -0.421875 0.488281 -0.515625 0.4375 -0.609375 C 0.425781 -0.660156 0.410156 -0.707031 0.390625 -0.75 C 0.378906 -0.789062 0.382812 -0.828125 0.40625 -0.859375 Z M 3.96875 -2.484375 L 6.25 -2.484375 L 7.984375 -10.359375 L 5.6875 -10.359375 Z M 3.96875 -2.484375 "/></g></g></g><g fill="#3871c1" fill-opacity="1"><g transform="translate(255.287472, 339.373487)"><g><path d="M 3.4375 -0.078125 L 0.203125 -0.078125 L 2.609375 -11.109375 L 1.25 -12.90625 L 6.078125 -12.90625 L 7.703125 -7.734375 L 8.828125 -12.90625 L 12.046875 -12.90625 L 9.265625 -0.21875 L 7.4375 1.140625 L 4.796875 -6.3125 Z M 3.4375 -0.078125 "/></g></g></g><g fill="#3871c1" fill-opacity="1"><g transform="translate(281.977084, 339.373487)"><g><path d="M 1.21875 -0.015625 C 1.132812 -0.015625 1.039062 -0.046875 0.9375 -0.109375 C 0.84375 -0.171875 0.757812 -0.242188 0.6875 -0.328125 C 0.613281 -0.421875 0.550781 -0.515625 0.5 -0.609375 C 0.476562 -0.660156 0.460938 -0.707031 0.453125 -0.75 C 0.441406 -0.789062 0.445312 -0.828125 0.46875 -0.859375 L 1.484375 -5.59375 L 4.328125 -3.84375 L 4.03125 -2.484375 L 6.3125 -2.484375 L 6.671875 -4.140625 L 1.90625 -7.46875 L 3.078125 -12.84375 L 10.859375 -12.84375 C 10.960938 -12.84375 11.0625 -12.8125 11.15625 -12.75 C 11.238281 -12.6875 11.320312 -12.613281 11.40625 -12.53125 C 11.476562 -12.445312 11.539062 -12.351562 11.59375 -12.25 C 11.625 -12.144531 11.632812 -12.0625 11.625 -12 L 10.65625 -7.5625 L 7.8125 -9.328125 L 8.03125 -10.359375 L 5.78125 -10.359375 L 5.515625 -9.15625 L 10.265625 -5.8125 L 9.015625 -0.015625 Z M 1.21875 -0.015625 "/></g></g></g></svg>